<?xml version="1.0" encoding="UTF-8"?>
<svg id="_レイヤー_2" data-name="レイヤー 2" xmlns="http://www.w3.org/2000/svg" viewBox="0 0 356.36 229.84">
  <defs>
    <style>
      .cls-1 {
        fill: #fff;
      }
    </style>
  </defs>
  <g id="_レイヤー_1-2" data-name="レイヤー 1">
    <polygon class="cls-1" points="24.01 75.66 38.32 75.66 38.32 13.34 62.33 13.34 62.33 1.71 0 1.71 0 13.34 24.01 13.34 24.01 75.66"/>
    <path class="cls-1" d="M83.86,30.95c.68-.21,1.86-.46,3.55-.75,1.69-.28,3.29-.43,4.79-.43,2.63,0,4.94.2,6.93.59,1.99.39,3.55.76,4.68,1.12l2.37-10.88c-.68-.21-1.58-.44-2.71-.69-1.13-.25-2.29-.46-3.49-.64-1.2-.18-2.41-.32-3.61-.43-1.2-.11-2.25-.16-3.16-.16-4.81,0-9.19.41-13.13,1.23-3.95.82-7.23,1.69-9.86,2.61v53.14h13.64V30.95Z"/>
    <path class="cls-1" d="M122.58,69.68c1.92,2.28,4.47,4.05,7.67,5.33,3.19,1.28,7.16,1.92,11.89,1.92,5.03,0,9.66-.34,13.86-1.01,4.21-.67,7.63-1.33,10.26-1.97V19.85h-13.64v45.14c-.9.21-2.27.39-4.11.53-1.84.14-3.59.21-5.24.21-4.58,0-7.8-1.28-9.64-3.84-1.84-2.56-2.76-6.83-2.76-12.81v-29.24h-13.64v31.27c0,3.77.41,7.24,1.24,10.4.83,3.17,2.2,5.89,4.11,8.16Z"/>
    <path class="cls-1" d="M208.52,65.15c-1.65.82-4.28,1.23-7.89,1.23s-6.82-.35-9.64-1.07c-2.82-.71-5.24-1.46-7.27-2.24l-2.37,10.78c1.28.5,3.49,1.16,6.65,1.97,3.16.82,7.33,1.23,12.51,1.23,7.74,0,13.7-1.37,17.87-4.11,4.17-2.74,6.26-6.78,6.26-12.11,0-2.49-.34-4.62-1.01-6.4-.68-1.78-1.75-3.36-3.21-4.75-1.46-1.39-3.33-2.63-5.58-3.74-2.25-1.1-5-2.22-8.23-3.36-1.96-.64-3.61-1.26-4.96-1.87-1.35-.6-2.44-1.21-3.27-1.81-.83-.6-1.41-1.26-1.75-1.97-.34-.71-.51-1.53-.51-2.45,0-1.85.86-3.22,2.59-4.11,1.73-.89,3.98-1.33,6.76-1.33,3.08,0,5.79.27,8.12.8,2.33.53,4.25,1.12,5.75,1.76l2.48-10.46c-1.58-.57-3.95-1.16-7.1-1.76-3.16-.6-6.46-.91-9.92-.91-6.84,0-12.25,1.48-16.23,4.43-3.98,2.95-5.97,6.99-5.97,12.11,0,2.63.43,4.86,1.3,6.67.86,1.81,2.05,3.36,3.55,4.64,1.5,1.28,3.29,2.4,5.35,3.36,2.07.96,4.34,1.87,6.82,2.72,4.06,1.42,6.97,2.74,8.74,3.95,1.76,1.21,2.65,2.74,2.65,4.59,0,1.99-.83,3.4-2.48,4.22Z"/>
    <path class="cls-1" d="M262.29,65.15c-1.65.82-4.28,1.23-7.89,1.23s-6.82-.35-9.64-1.07c-2.82-.71-5.24-1.46-7.27-2.24l-2.37,10.78c1.28.5,3.49,1.16,6.65,1.97,3.16.82,7.33,1.23,12.51,1.23,7.74,0,13.7-1.37,17.87-4.11,4.17-2.74,6.26-6.78,6.26-12.11,0-2.49-.34-4.62-1.01-6.4-.68-1.78-1.75-3.36-3.21-4.75-1.46-1.39-3.33-2.63-5.58-3.74-2.25-1.1-5-2.22-8.23-3.36-1.96-.64-3.61-1.26-4.96-1.87-1.35-.6-2.44-1.21-3.27-1.81-.83-.6-1.41-1.26-1.75-1.97-.34-.71-.51-1.53-.51-2.45,0-1.85.86-3.22,2.59-4.11,1.73-.89,3.98-1.33,6.76-1.33,3.08,0,5.79.27,8.12.8,2.33.53,4.25,1.12,5.75,1.76l2.48-10.46c-1.58-.57-3.95-1.16-7.1-1.76-3.16-.6-6.46-.91-9.92-.91-6.84,0-12.25,1.48-16.23,4.43-3.98,2.95-5.97,6.99-5.97,12.11,0,2.63.43,4.86,1.3,6.67.86,1.81,2.05,3.36,3.55,4.64,1.5,1.28,3.29,2.4,5.35,3.36,2.07.96,4.34,1.87,6.82,2.72,4.06,1.42,6.97,2.74,8.74,3.95,1.76,1.21,2.65,2.74,2.65,4.59,0,1.99-.83,3.4-2.48,4.22Z"/>
    <path class="cls-1" d="M301.17,67.18c3.23,3.31,7.17,5.82,11.83,7.52,4.66,1.71,9.92,2.56,15.78,2.56,3,0,5.82-.16,8.45-.48,2.63-.32,5-.75,7.1-1.28,2.1-.53,3.93-1.08,5.47-1.65,1.54-.57,2.76-1.14,3.66-1.71l-3.83-10.99c-1.73.85-4.17,1.76-7.33,2.72-3.16.96-7.25,1.44-12.29,1.44-4.21,0-7.82-.66-10.82-1.97-3.01-1.32-5.49-3.17-7.44-5.55-1.96-2.38-3.4-5.21-4.34-8.48-.94-3.27-1.41-6.87-1.41-10.78,0-4.41.6-8.29,1.8-11.63,1.2-3.34,2.88-6.12,5.02-8.32,2.14-2.2,4.68-3.86,7.61-4.96,2.93-1.1,6.09-1.65,9.47-1.65,3.91,0,7.53.48,10.88,1.44,3.34.96,5.92,1.97,7.72,3.04l4.17-10.99c-.53-.28-1.43-.75-2.71-1.39-1.28-.64-2.89-1.24-4.85-1.81-1.96-.57-4.25-1.08-6.88-1.55-2.63-.46-5.56-.69-8.79-.69-5.34,0-10.33.85-14.99,2.56-4.66,1.71-8.72,4.21-12.17,7.52-3.46,3.31-6.18,7.35-8.17,12.11-1.99,4.77-2.99,10.24-2.99,16.43s.86,11.67,2.59,16.43c1.73,4.77,4.21,8.8,7.44,12.11Z"/>
    <path class="cls-1" d="M355.2,215.02l-3.95-2.06s0,0,0,0l-.12-.06-130.93-68.31-28.75-15.56c-3.36-2.34-5.11-3.06-6.79-2.71,0,0-.01,0-.02,0-.36,0-.71.09-1.03.26L24.64,212.61c-.83.45-1.27,1.37-1.09,2.3.17.92,1.57,3.3,2.5,3.42l106.19,11.49c.09.01.18.02.26.02.21,0,.41-.03.61-.09l100.93-29.85c.27-.08.54-.12.82-.12.15,0,.31.01.46.04l114.14,18.53s.01,0,.02,0l4.39.71c.12.02.23.03.35.03.93,0,1.75-.59,2.04-1.48.34-1.01-.11-2.1-1.05-2.59ZM121.36,222.69l-75.18-9.27c-1.24-.15-2.99-1.18-2.47-2.32.37-.81.36-.69,1.46-1.28l59.2-32.05c2.96-.79,3.79,1.99,4.92,3.57l16.02,35.38-.11-.2c2.24,4.92-1.14,6-3.83,6.16ZM132.91,215.47s-.07,0-.1,0c-1.09-.04-2.07-.69-2.52-1.69l-16.27-35.92c-.41-1.53-.7-4.38,2-6.32l-.02-.07,55.91-30.26c.16.1,1.12-.41,1.31-.42,1.53-.07,1.42,1.26-.37,4.19l-37.42,68.99c-.5.93-1.47,1.5-2.53,1.5ZM222.98,197.18l-79.85,23.62c-.98.18-4.22.53-3.38-2.59l42.34-76.76c1.41-2.11,5.53-2.25,9.73,2.39l34.96,47.35c2.14,3.22-1.47,5.14-3.8,6ZM234.44,189.87h-.02c-.91,0-1.77-.43-2.31-1.17l-30.09-40.74c-.8-1.08-.74-2.57.14-3.58.56-.65,1.36-1,2.18-1,.46,0,.92.11,1.35.34l42.93,22.83c.73.39,1.26,1.08,1.45,1.88.15.64.07,1.3-.21,1.89l-13.17,18.44c-.54.69-1.36,1.11-2.24,1.11ZM318.35,205.02c-.4,1.19-1.51,1.97-2.73,1.97-.15,0-.31-.01-.46-.04l-71.08-11.54c-.98-.16-1.81-.81-2.19-1.73-.37-.88-.26-1.87.26-2.67l13.65-19.04c.55-.54,1.27-.85,2.02-.85.45,0,.9.11,1.33.33l57.8,30.12c1.25.65,1.84,2.12,1.4,3.45Z"/>
  </g>
</svg>